<svg xmlns="http://www.w3.org/2000/svg"  viewBox="0 0 48 48" width="200px" height="200px"><linearGradient id="7zOQ65QfFjh9gKNQF5aMxa" x1="12.229" x2="54.653" y1="-8.935" y2="33.489" gradientUnits="userSpaceOnUse"><stop offset=".002" stop-color="#427fdb"/><stop offset=".397" stop-color="#2668cb"/><stop offset=".763" stop-color="#1358bf"/><stop offset="1" stop-color="#0c52bb"/></linearGradient><path fill="url(#7zOQ65QfFjh9gKNQF5aMxa)" d="M44.376,12.048l-8.423-8.423c-1.178-1.178-3.192-0.605-3.574,1.017L29,19l14.359-3.379	C44.981,15.24,45.554,13.226,44.376,12.048z"/><linearGradient id="7zOQ65QfFjh9gKNQF5aMxb" x1="-8.935" x2="33.489" y1="12.229" y2="54.653" gradientUnits="userSpaceOnUse"><stop offset=".002" stop-color="#427fdb"/><stop offset=".397" stop-color="#2668cb"/><stop offset=".763" stop-color="#1358bf"/><stop offset="1" stop-color="#0c52bb"/></linearGradient><path fill="url(#7zOQ65QfFjh9gKNQF5aMxb)" d="M12.048,44.376l-8.423-8.423c-1.178-1.178-0.605-3.192,1.017-3.574L19,29l-3.379,14.359	C15.24,44.981,13.226,45.554,12.048,44.376z"/><linearGradient id="7zOQ65QfFjh9gKNQF5aMxc" x1="1.654" x2="44.064" y1="1.654" y2="44.064" gradientUnits="userSpaceOnUse"><stop offset="0" stop-color="#2aa4f4"/><stop offset="1" stop-color="#007ad9"/></linearGradient><path fill="url(#7zOQ65QfFjh9gKNQF5aMxc)" d="M38,24c0,0.19,0,0.37-0.02,0.56c-0.03,0.86-0.14,1.71-0.32,2.52	c-0.21,0.91-0.5,1.79-0.88,2.62c-1.4,3.15-3.93,5.68-7.08,7.08c-0.89,0.41-1.84,0.72-2.82,0.93c-0.83,0.17-1.68,0.27-2.56,0.28	C24.21,38,24.11,38,24,38c-7.73,0-14-6.27-14-14c0-0.11,0-0.21,0.01-0.32c0.01-0.88,0.11-1.73,0.28-2.56	c0.21-0.98,0.52-1.93,0.93-2.82c1.4-3.15,3.93-5.68,7.08-7.08c0.83-0.38,1.71-0.67,2.62-0.88c0.81-0.18,1.66-0.29,2.52-0.32	C23.63,10,23.81,10,24,10C31.73,10,38,16.27,38,24z"/><linearGradient id="7zOQ65QfFjh9gKNQF5aMxd" x1="5.279" x2="44.823" y1="5.279" y2="44.823" gradientUnits="userSpaceOnUse"><stop offset="0" stop-color="#f9f9f9"/><stop offset=".26" stop-color="#f0f1f2"/><stop offset=".678" stop-color="#d9dcdf"/><stop offset="1" stop-color="#c2c8cc"/></linearGradient><path fill="url(#7zOQ65QfFjh9gKNQF5aMxd)" d="M36.78,29.7c-1.4,3.15-3.93,5.68-7.08,7.08L11.22,18.3c1.4-3.15,3.93-5.68,7.08-7.08	L36.78,29.7z"/></svg>