<svg width="24" height="24" viewBox="0 0 24 24" fill="none" xmlns="http://www.w3.org/2000/svg">
<path d="M11.4167 17.1923H10.9167V17.6923V19.5H5.5V5.5H18.5V19.5H13.0833V17.6923V17.1923H12.5833H11.4167ZM6.16667 5.65385H5.66667V6.15385V18.8462V19.3462H6.16667H10.25H10.75V18.8462V17.0385H13.25V18.8462V19.3462H13.75H17.8333H18.3333V18.8462V6.15385V5.65385H17.8333H6.16667ZM9.16667 7.96154H7.83333V7.80769H9.16667V7.96154ZM12.6667 7.96154H11.3333V7.80769H12.6667V7.96154ZM16.1667 7.96154H14.8333V7.80769H16.1667V7.96154ZM9.16667 10.2692H7.83333V10.1154H9.16667V10.2692ZM12.6667 10.2692H11.3333V10.1154H12.6667V10.2692ZM16.1667 10.2692H14.8333V10.1154H16.1667V10.2692ZM9.16667 12.5769H7.83333V12.4231H9.16667V12.5769ZM12.6667 12.5769H11.3333V12.4231H12.6667V12.5769ZM16.1667 12.5769H14.8333V12.4231H16.1667V12.5769ZM9.16667 14.8846H7.83333V14.7308H9.16667V14.8846ZM12.6667 14.8846H11.3333V14.7308H12.6667V14.8846ZM16.1667 14.8846H14.8333V14.7308H16.1667V14.8846ZM9.16667 17.1923H7.83333V17.0385H9.16667V17.1923ZM16.1667 17.1923H14.8333V17.0385H16.1667V17.1923Z" stroke="white"/>
</svg>
