<svg width="48" height="48" viewBox="0 0 24 24" fill="none" xmlns="http://www.w3.org/2000/svg">
<path d="M13.0627 11.6501L12.7079 12.0041L13.0627 12.3581L17.3627 16.6481L17.3637 16.6491C17.4106 16.6956 17.4478 16.7509 17.4731 16.8118C17.4985 16.8727 17.5116 16.9381 17.5116 17.0041C17.5116 17.0701 17.4985 17.1355 17.4731 17.1964C17.4478 17.2573 17.4106 17.3126 17.3637 17.3591L17.3608 17.362C17.3143 17.4089 17.259 17.4461 17.1981 17.4714C17.1372 17.4968 17.0718 17.5099 17.0058 17.5099C16.9398 17.5099 16.8744 17.4968 16.8135 17.4714C16.7526 17.4461 16.6973 17.4089 16.6508 17.362L16.6498 17.3609L12.3598 13.0609L12.0058 12.7062L11.6518 13.0609L7.36183 17.3609L7.3608 17.362C7.31431 17.4089 7.25901 17.4461 7.19809 17.4714C7.13716 17.4968 7.07181 17.5099 7.0058 17.5099C6.93979 17.5099 6.87444 17.4968 6.81351 17.4714C6.75258 17.4461 6.69728 17.4089 6.6508 17.362L6.6479 17.3591C6.60103 17.3126 6.56384 17.2573 6.53845 17.1964C6.51307 17.1354 6.5 17.0701 6.5 17.0041C6.5 16.9381 6.51307 16.8727 6.53845 16.8118C6.56384 16.7509 6.60103 16.6956 6.6479 16.6491L6.64894 16.6481L10.9489 12.3581L11.3037 12.0041L10.9489 11.6501L6.64935 7.36054C6.64929 7.36048 6.64924 7.36042 6.64918 7.36037C6.55475 7.26585 6.50171 7.1377 6.50171 7.00409C6.50171 6.8704 6.55482 6.74218 6.64935 6.64765C6.74389 6.55311 6.87211 6.5 7.0058 6.5C7.13941 6.5 7.26755 6.55305 7.36207 6.64747C7.36213 6.64753 7.36219 6.64759 7.36224 6.64765L11.6518 10.9472L12.0058 11.302L12.3598 10.9472L16.6494 6.64765C16.6495 6.64754 16.6496 6.64744 16.6497 6.64734C16.7442 6.553 16.8722 6.5 17.0058 6.5C17.1395 6.5 17.2677 6.55311 17.3622 6.64765C17.4568 6.74218 17.5099 6.8704 17.5099 7.00409C17.5099 7.13764 17.4569 7.26573 17.3625 7.36024C17.3624 7.36034 17.3623 7.36044 17.3622 7.36054L13.0627 11.6501Z" stroke="#0F172A"/>
</svg>
