<svg width="20" height="20" viewBox="0 0 20 20" fill="none" xmlns="http://www.w3.org/2000/svg">
<path d="M2.5 2.5L17.5 17.5M8.81999 8.82248C8.50726 9.13499 8.33148 9.55894 8.33132 10.0011C8.33117 10.4432 8.50665 10.8672 8.81916 11.18C9.13167 11.4927 9.55562 11.6685 9.99774 11.6687C10.4399 11.6688 10.8639 11.4933 11.1767 11.1808M7.8025 4.47083C8.51701 4.26643 9.25683 4.16403 10 4.16667C13.3333 4.16667 16.1108 6.11083 18.3333 10C17.685 11.1342 16.99 12.1033 16.2475 12.9067M14.4642 14.4575C13.105 15.3742 11.6183 15.8333 10 15.8333C6.66666 15.8333 3.88916 13.8892 1.66666 10C2.8075 8.00416 4.09416 6.52083 5.52666 5.54917" stroke="#0F172A" stroke-width="1.5" stroke-linecap="round" stroke-linejoin="round"/>
</svg>
