<svg width="24" height="24" viewBox="0 0 24 24" fill="none" xmlns="http://www.w3.org/2000/svg">
<path d="M19 8.71L13.667 4.562C13.199 4.19791 12.623 4.00023 12.03 4.00023C11.437 4.00023 10.861 4.19791 10.393 4.562L5.059 8.71C4.73844 8.95928 4.47909 9.27853 4.30075 9.64335C4.12242 10.0082 4.02981 10.4089 4.03 10.815V18.015C4.03 18.5454 4.24071 19.0541 4.61579 19.4292C4.99086 19.8043 5.49957 20.015 6.03 20.015H18.03C18.5604 20.015 19.0691 19.8043 19.4442 19.4292C19.8193 19.0541 20.03 18.5454 20.03 18.015V10.815C20.03 9.992 19.65 9.215 19 8.71Z" stroke="#0F172A" stroke-width="1.5" stroke-linecap="round" stroke-linejoin="round"/>
</svg>
