<svg width="48" height="48" viewBox="0 0 24 24" fill="none" xmlns="http://www.w3.org/2000/svg">
<path d="M3.95 11.5H20.05C20.2985 11.5 20.5 11.7015 20.5 11.95V12.05C20.5 12.2985 20.2985 12.5 20.05 12.5H3.95C3.70147 12.5 3.5 12.2985 3.5 12.05V11.95C3.5 11.7015 3.70147 11.5 3.95 11.5Z" stroke="white"/>
<path d="M3.95 16.5H20.05C20.2985 16.5 20.5 16.7015 20.5 16.95V17.05C20.5 17.2985 20.2985 17.5 20.05 17.5H3.95C3.70147 17.5 3.5 17.2985 3.5 17.05V16.95C3.5 16.7015 3.70147 16.5 3.95 16.5Z" stroke="white"/>
<path d="M3.95 6.5H20.05C20.2985 6.5 20.5 6.70147 20.5 6.95V7.05C20.5 7.29853 20.2985 7.5 20.05 7.5H3.95C3.70147 7.5 3.5 7.29853 3.5 7.05V6.95C3.5 6.70147 3.70147 6.5 3.95 6.5Z" stroke="white"/>
</svg>
