<svg width="24" height="24" viewBox="0 0 24 24" fill="none" xmlns="http://www.w3.org/2000/svg">
<path d="M16.1383 15.7594L16.1383 15.7594L16.1411 15.7567L18.7942 13.1036L19.6477 12.25H18.4406H9.75C9.68369 12.25 9.62011 12.2237 9.57322 12.1768C9.52634 12.1299 9.5 12.0663 9.5 12C9.5 11.9337 9.52634 11.8701 9.57322 11.8232L9.21967 11.4697L9.57322 11.8232C9.62011 11.7763 9.6837 11.75 9.75 11.75H18.4406H19.6477L18.7942 10.8964L16.1411 8.24332L16.1395 8.24177C16.0919 8.19464 16.0651 8.13055 16.0648 8.06361C16.0645 7.99667 16.0908 7.93235 16.1379 7.8848C16.185 7.83726 16.2491 7.81038 16.3161 7.81009C16.3828 7.80979 16.4468 7.8359 16.4943 7.88268C16.4945 7.88286 16.4947 7.88305 16.4949 7.88323L20.4291 11.8175C20.4293 11.8177 20.4296 11.8179 20.4298 11.8181C20.4775 11.8666 20.5042 11.932 20.5042 12C20.5042 12.068 20.4775 12.1334 20.4298 12.1819C20.4296 12.1821 20.4293 12.1823 20.4291 12.1825L16.4983 16.1133C16.4476 16.1604 16.3811 16.1868 16.3119 16.1875C16.2628 16.1871 16.2149 16.1723 16.1742 16.1449C16.1331 16.1173 16.1011 16.078 16.0823 16.0321C16.0636 15.9862 16.0589 15.9358 16.0689 15.8872C16.0788 15.8387 16.103 15.7942 16.1383 15.7594ZM4 19.5V20H4.5H9.75C9.8163 20 9.87989 20.0263 9.92678 20.0732C9.97366 20.1201 10 20.1837 10 20.25C10 20.3163 9.97366 20.3799 9.92678 20.4268C9.87989 20.4737 9.8163 20.5 9.75 20.5H4.5C4.23478 20.5 3.98043 20.3946 3.79289 20.2071C3.60536 20.0196 3.5 19.7652 3.5 19.5V4.5C3.5 4.23478 3.60536 3.98043 3.79289 3.79289C3.98043 3.60536 4.23478 3.5 4.5 3.5H9.75C9.8163 3.5 9.87989 3.52634 9.92678 3.57322C9.97366 3.62011 10 3.6837 10 3.75C10 3.8163 9.97366 3.87989 9.92678 3.92678L10.2803 4.28033L9.92678 3.92678C9.87989 3.97366 9.8163 4 9.75 4H4.5H4V4.5V19.5Z" stroke="white"/>
</svg>
