<svg width="24" height="24" viewBox="0 0 24 24" fill="none" xmlns="http://www.w3.org/2000/svg">
<path d="M16.5429 1.54665L16.1902 1.19394L16.5429 1.54665C16.7304 1.35911 16.9848 1.25375 17.25 1.25375H21.75C22.0152 1.25375 22.2696 1.35911 22.4571 1.54665C22.6446 1.73418 22.75 1.98854 22.75 2.25375V5.25375C22.75 5.51897 22.6446 5.77332 22.4571 5.96086L22.8107 6.31441L22.4571 5.96086C22.2696 6.1484 22.0152 6.25375 21.75 6.25375H17.25C16.9848 6.25375 16.7304 6.1484 16.5429 5.96086C16.3554 5.77332 16.25 5.51897 16.25 5.25375V4.50375V4.00375H15.75H12.75H12.25V4.50375V11.2538V11.7538H12.75H15.75H16.25V11.2538V10.5038C16.25 10.2385 16.3554 9.98418 16.5429 9.79665C16.7304 9.60911 16.9848 9.50375 17.25 9.50375H21.75C22.0152 9.50375 22.2696 9.60911 22.4571 9.79665C22.6446 9.98418 22.75 10.2385 22.75 10.5038V13.5038C22.75 13.769 22.6446 14.0233 22.4571 14.2109C22.2696 14.3984 22.0152 14.5038 21.75 14.5038H17.25C16.9848 14.5038 16.7304 14.3984 16.5429 14.2109C16.3554 14.0233 16.25 13.769 16.25 13.5038V12.7538V12.2538H15.75H12.75H12.25V12.7538V19.5038V20.0038H12.75H15.75H16.25V19.5038V18.7538C16.25 18.4885 16.3554 18.2342 16.5429 18.0466C16.7304 17.8591 16.9848 17.7538 17.25 17.7538H21.75C22.0152 17.7538 22.2696 17.8591 22.4571 18.0466C22.6446 18.2342 22.75 18.4885 22.75 18.7538V21.7538C22.75 22.019 22.6446 22.2733 22.4571 22.4609C22.2696 22.6484 22.0152 22.7538 21.75 22.7538H17.25C16.9848 22.7538 16.7304 22.6484 16.5429 22.4609C16.3554 22.2733 16.25 22.019 16.25 21.7538V21.0038V20.5038H15.75H12.7505C12.4852 20.5035 12.2309 20.398 12.0433 20.2104C11.8558 20.0229 11.7503 19.7685 11.75 19.5033V4.50375V4.00375H11.25H8.25H7.75V4.50375V5.25375C7.75 5.51897 7.64464 5.77332 7.45711 5.96086C7.26957 6.1484 7.01522 6.25375 6.75 6.25375H2.25C1.98478 6.25375 1.73043 6.1484 1.54289 5.96086C1.35536 5.77332 1.25 5.51897 1.25 5.25375V2.25375C1.25 1.98854 1.35536 1.73418 1.54289 1.54665C1.73043 1.35911 1.98478 1.25375 2.25 1.25375H6.75C7.01522 1.25375 7.26957 1.35911 7.45711 1.54665C7.64464 1.73418 7.75 1.98854 7.75 2.25375V3.00375V3.50375H8.25H15.75H16.25V3.00375V2.25375C16.25 1.98854 16.3554 1.73418 16.5429 1.54665ZM17.25 1.75375H16.75V2.25375V5.25375V5.75375H17.25H21.75H22.25V5.25375V2.25375V1.75375H21.75H17.25ZM6.75 5.75375H7.25V5.25375V2.25375V1.75375H6.75H2.25H1.75V2.25375V5.25375V5.75375H2.25H6.75ZM17.25 18.2538H16.75V18.7538V21.7538V22.2538H17.25H21.75H22.25V21.7538V18.7538V18.2538H21.75H17.25ZM17.25 10.0038H16.75V10.5038V13.5038V14.0038H17.25H21.75H22.25V13.5038V10.5038V10.0038H21.75H17.25Z" stroke="white"/>
</svg>
