<svg width="24" height="24" viewBox="0 0 24 24" fill="none" xmlns="http://www.w3.org/2000/svg">
<path d="M19.8702 18.9H19.8696H4.12809C4.12806 18.9 4.12803 18.9 4.128 18.9C3.90213 18.8999 3.68017 18.841 3.48399 18.7291C3.28779 18.6171 3.12414 18.456 3.00919 18.2615C2.89424 18.067 2.83195 17.846 2.82846 17.6201C2.82497 17.3942 2.8804 17.1713 2.98929 16.9734L2.5512 16.7324L2.98929 16.9734L10.8612 2.66355C10.8612 2.6635 10.8613 2.66344 10.8613 2.66339C10.9735 2.45964 11.1383 2.28973 11.3386 2.17138C11.5389 2.053 11.7673 1.99055 12 1.99055C12.2327 1.99055 12.4611 2.053 12.6614 2.17138C12.8617 2.28973 13.0265 2.45964 13.1387 2.66339C13.1387 2.66344 13.1388 2.6635 13.1388 2.66355L21.0107 16.9734L21.4488 16.7324L21.0107 16.9734C21.1197 17.1715 21.1751 17.3945 21.1715 17.6205C21.168 17.8465 21.1055 18.0677 20.9904 18.2622C20.8752 18.4568 20.7113 18.6179 20.5149 18.7297C20.3184 18.8416 20.0962 18.9003 19.8702 18.9ZM12.9637 2.75865L12.9631 2.7588C12.8682 2.58671 12.7289 2.44319 12.5596 2.34319C12.3901 2.24302 12.1969 2.19018 12 2.19018C11.8031 2.19018 11.6098 2.24302 11.4404 2.34319C11.2709 2.44335 11.1314 2.58717 11.0364 2.75964L11.0363 2.75984L3.16551 17.071C3.16551 17.071 3.1655 17.071 3.16549 17.071C3.07337 17.2385 3.02648 17.4271 3.02943 17.6182C3.03239 17.8093 3.08509 17.9964 3.18236 18.1609C3.27962 18.3255 3.41809 18.4618 3.58411 18.5566C3.75013 18.6513 3.93797 18.7012 4.12912 18.7012H4.1292H19.872H19.8726C20.0635 18.701 20.251 18.6511 20.4167 18.5564C20.5824 18.4618 20.7206 18.3257 20.8179 18.1615C20.915 17.9973 20.9679 17.8106 20.9711 17.6198C20.9743 17.429 20.9278 17.2406 20.8362 17.0732L20.8357 17.0722L12.9637 2.75865ZM12 7.89999C12.0265 7.89999 12.052 7.91053 12.0707 7.92928C12.0895 7.94804 12.1 7.97347 12.1 7.99999V12.8C12.1 12.8265 12.0895 12.852 12.0707 12.8707C12.052 12.8895 12.0265 12.9 12 12.9C11.9735 12.9 11.948 12.8895 11.9293 12.8707C11.9105 12.852 11.9 12.8265 11.9 12.8V7.99999C11.9 7.97347 11.9105 7.94804 11.9293 7.92928C11.948 7.91053 11.9735 7.89999 12 7.89999Z" stroke="#0F172A"/>
<path d="M12.5 15C12.5 15.2761 12.2761 15.5 12 15.5C11.7239 15.5 11.5 15.2761 11.5 15C11.5 14.7239 11.7239 14.5 12 14.5C12.2761 14.5 12.5 14.7239 12.5 15Z" stroke="#0F172A"/>
</svg>
