<svg width="24" height="24" viewBox="0 0 24 24" fill="none" xmlns="http://www.w3.org/2000/svg">
<path d="M0.75 15.35C0.816303 15.35 0.879892 15.3763 0.926777 15.4232C0.973661 15.4701 1 15.5337 1 15.6V19.35C1 19.8804 1.21071 20.3891 1.58579 20.7642C1.96086 21.1393 2.46957 21.35 3 21.35H21C21.5304 21.35 22.0391 21.1393 22.4142 20.7642C22.7893 20.3891 23 19.8804 23 19.35V15.6C23 15.5337 23.0263 15.4701 23.0732 15.4232C23.1201 15.3763 23.1837 15.35 23.25 15.35C23.3163 15.35 23.3799 15.3763 23.4268 15.4232C23.4737 15.4701 23.5 15.5337 23.5 15.6V19.35C23.5 20.013 23.2366 20.6489 22.7678 21.1178C22.2989 21.5866 21.663 21.85 21 21.85H3C2.33696 21.85 1.70107 21.5866 1.23223 21.1178C0.763392 20.6489 0.5 20.013 0.5 19.35V15.6C0.5 15.5337 0.526339 15.4701 0.573223 15.4232C0.620108 15.3763 0.683697 15.35 0.75 15.35Z" stroke="#0F172A"/>
<path d="M12.1774 17.4274L12.177 17.4279C12.1538 17.4512 12.1262 17.4696 12.0958 17.4822C12.0654 17.4949 12.0329 17.5013 12 17.5013C11.9671 17.5013 11.9346 17.4949 11.9042 17.4822C11.8738 17.4696 11.8462 17.4512 11.823 17.4279L11.4691 17.7809L11.8226 17.4274L7.32255 12.9274C7.27549 12.8804 7.24905 12.8166 7.24905 12.75C7.24905 12.6834 7.27549 12.6196 7.32255 12.5726C7.36962 12.5255 7.43345 12.4991 7.5 12.4991C7.56656 12.4991 7.63039 12.5255 7.67745 12.5726L10.8964 15.793L11.75 16.647V15.4395V2.25C11.75 2.1837 11.7763 2.12011 11.8232 2.07322C11.8701 2.02634 11.9337 2 12 2C12.0663 2 12.1299 2.02634 12.1768 2.07322C12.2237 2.12011 12.25 2.18369 12.25 2.25V15.4395V16.647L13.1036 15.793L16.3226 12.5726C16.3696 12.5255 16.4334 12.4991 16.5 12.4991C16.5666 12.4991 16.6304 12.5255 16.6774 12.5726C16.7245 12.6196 16.7509 12.6834 16.7509 12.75C16.7509 12.8166 16.7245 12.8804 16.6774 12.9274L12.1774 17.4274Z" stroke="#0F172A"/>
</svg>
